<svg id="Logo" xmlns="http://www.w3.org/2000/svg" viewBox="0 0 601.44 309.25"><defs><style>.cls-1{fill:#44bfef;}.cls-2{fill:#fff;}.cls-3{fill:#2a2a2a;}</style></defs><title>en-logo</title><path class="cls-1" d="M1260.72,504.85l-70,50.06H892.62a25.07,25.07,0,0,0-25,25v89.71a25.07,25.07,0,0,0,25,25h343.1a25.07,25.07,0,0,0,25-25V504.85Z" transform="translate(-659.28 -385.38)"/><path class="cls-2" d="M918.18,595h16.68v59.89H918.18Z" transform="translate(-659.28 -385.38)"/><path class="cls-2" d="M954.8,595h15.48l24.64,31.65V595h16.43v59.89H996.8L971.22,622v32.86H954.8Z" transform="translate(-659.28 -385.38)"/><path class="cls-2" d="M1030.94,595H1054c21.39,0,33.8,12.32,33.8,29.6v.17c0,17.28-12.58,30.12-34.14,30.12h-22.76Zm23.36,45.17c9.93,0,16.51-5.47,16.51-15.14v-.17c0-9.58-6.58-15.15-16.51-15.15h-6.76v30.46Z" transform="translate(-659.28 -385.38)"/><path class="cls-2" d="M1105.72,595h16.69v59.89h-16.69Z" transform="translate(-659.28 -385.38)"/><path class="cls-2" d="M1163.05,594.57h16l25.49,60.32h-17.79l-4.37-10.7h-23.09l-4.28,10.7h-17.46Zm14.54,36.7-6.67-17-6.76,17Z" transform="translate(-659.28 -385.38)"/><g id="hello"><path class="cls-2" d="M659.28,525.49v50l70-50h342.1a25,25,0,0,0,25-25V410.38a25,25,0,0,0-25-25H684.28a25,25,0,0,0-25,25Z" transform="translate(-659.28 -385.38)"/></g><path class="cls-3" d="M720.24,424.51h16.6v22.42h21.31V424.51h16.59V484.4H758.15V461.64H736.84V484.4h-16.6Z" transform="translate(-659.28 -385.38)"/><path class="cls-3" d="M794.34,424.51h48.17v14.12H810.77v9.07h28.74v13.09H810.77v9.49h32.17V484.4h-48.6Z" transform="translate(-659.28 -385.38)"/><path class="cls-3" d="M860.39,424.51H877v45.35h29V484.4h-45.6Z" transform="translate(-659.28 -385.38)"/><path class="cls-3" d="M922.08,424.51h16.6v45.35h29V484.4h-45.6Z" transform="translate(-659.28 -385.38)"/><path class="cls-3" d="M981.72,454.63v-.17c0-17.2,13.86-31.15,32.34-31.15s32.17,13.78,32.17,31v.18c0,17.19-13.86,31.14-32.34,31.14S981.72,471.82,981.72,454.63Zm47.57,0v-.17c0-8.65-6.25-16.17-15.4-16.17s-15.15,7.35-15.15,16v.18c0,8.64,6.25,16.17,15.32,16.17S1029.29,463.27,1029.29,454.63Z" transform="translate(-659.28 -385.38)"/></svg>