<?xml version="1.0" encoding="utf-8"?>
<!-- Generator: Adobe Illustrator 22.0.1, SVG Export Plug-In . SVG Version: 6.00 Build 0)  -->
<svg version="1.1" id="Layer_1" xmlns="http://www.w3.org/2000/svg" xmlns:xlink="http://www.w3.org/1999/xlink" x="0px" y="0px"
	 viewBox="0 0 400 400" style="enable-background:new 0 0 400 400;" xml:space="preserve">
<style type="text/css">
	.st0{fill:#FFFFFF;}
</style>
<title>process-1</title>
<desc>Created with Sketch.</desc>
<g id="Page-1_1_">
	<g id="process-1">
		<g id="Group" transform="translate(67.000000, 73.000000)">
			<g id="Page-1">
				<g id="Group-30" transform="translate(0.000000, 0.778000)">
					<g id="Clip-9">
					</g>
					<path id="Fill-23" class="st0" d="M195.3,2.7c-16.6,0-30,13.7-30,30.7s13.4,30.7,30,30.7s30-13.7,30-30.7S211.9,2.7,195.3,2.7
						 M176.8,44.9c-2.7,0-4.9-2.2-4.9-5s2.2-5,4.9-5s4.9,2.2,4.9,5C181.7,42.6,179.5,44.9,176.8,44.9 M199.2,47.8
						c-2.7,0-4.9-2.2-4.9-5s2.2-5,4.9-5s4.9,2.2,4.9,5C204.1,45.5,201.9,47.8,199.2,47.8"/>
				</g>
			</g>
		</g>
	</g>
	<path id="Fill-22" class="st0" d="M309,151.6c-0.8-4.8-4.9-8.2-9.6-8.1h-62.3c-2,0-4,0.5-5.7,1.8l-45.6,32.4L171,188.2
		c-1.4,1-1.7,2.9-0.8,4.3c0.6,0.9,1.5,1.3,2.5,1.3c0.6,0,1.2-0.2,1.7-0.6l7.4-5.3c0.3,1.2,0.8,2.4,1.5,3.4c1.9,2.8,4.9,4.2,8,4.2
		c1.9,0,3.8-0.6,5.5-1.8l34.1-24.2h5.4l-15.2,88.8c-0.3,1.6,0.8,2.9,2.4,2.9h13v55.5c0,6,4.8,10.9,10.7,10.9s10.7-4.9,10.7-10.9
		v-55.5h6.8v55.5c0,6,4.8,10.9,10.7,10.9c5.9,0,10.7-4.9,10.7-10.9v-55.5h13c1.6,0,2.7-1.3,2.4-2.9l-15.2-88.8h6l9.5,54.2
		c0.8,4.8,4.9,8.2,9.5,8.2c0.6,0,1.1-0.1,1.7-0.2c5.3-1,8.8-6.1,7.8-11.5L309,151.6z"/>
	<g id="process-2_4_">
		<g>
			<rect x="88.1" y="253.1" class="st0" width="65.5" height="4.7"/>
			<rect x="88.1" y="322.9" class="st0" width="65.5" height="4.7"/>
			<path class="st0" d="M156.2,327.6h-4.6v-102c0-7.6,6.1-13.7,13.7-13.7h2.1c2.5,0,4.6,2,4.6,4.6l0,0h-6.6c-5,0-9.1,4.1-9.1,9.1
				L156.2,327.6L156.2,327.6z"/>
			<rect x="133.7" y="214.5" class="st0" width="10.1" height="111.1"/>
			<path class="st0" d="M85.6,327.6h4.6v-102c0-7.6-6.1-13.7-13.7-13.7h-2.1c-2.5,0-4.6,2-4.6,4.6l0,0h6.6c5,0,9.1,4.1,9.1,9.1
				L85.6,327.6L85.6,327.6z"/>
			<rect x="115.8" y="214.5" class="st0" width="10.2" height="111.1"/>
			<rect x="98" y="214.5" class="st0" width="10.1" height="111.1"/>
			<path class="st0" d="M69.8,216.5L69.8,216.5c0-2.5,2-4.6,4.6-4.6h46.5h46.5c2.5,0,4.6,2,4.6,4.6l0,0h-51.1H69.8z"/>
		</g>
	</g>
</g>
</svg>
