<?xml version="1.0" encoding="utf-8"?>
<!-- Generator: Adobe Illustrator 22.0.1, SVG Export Plug-In . SVG Version: 6.00 Build 0)  -->
<svg version="1.1" id="Layer_1" xmlns="http://www.w3.org/2000/svg" xmlns:xlink="http://www.w3.org/1999/xlink" x="0px" y="0px"
	 viewBox="0 0 400 400" style="enable-background:new 0 0 400 400;" xml:space="preserve">
<style type="text/css">
	.st0{fill:#FFFFFF;}
	.st1{fill:#E6E6E6;}
	.st2{fill:#448AFE;}
	.st3{fill:none;stroke:#448AFE;stroke-width:1.06;stroke-linecap:round;stroke-linejoin:round;}
	.st4{fill:#666666;}
	.st5{fill:#0082FF;}
	.st6{opacity:0.5;fill:#E4E4E4;}
	.st7{opacity:0.75;fill:#E4E4E4;}
	.st8{fill:#E4E4E4;}
</style>
<title>process-3</title>
<desc>Created with Sketch.</desc>
<g id="Page-1_1_">
	<g id="process-3">
		<g id="Page-1" transform="translate(155.000000, 66.000000)">
			<g id="Group-31" transform="translate(0.000000, 0.008550)">
				<path id="Fill-22" class="st0" d="M156.1,165.2l-11.4-63.6c-0.8-4.4-4.7-7.5-9-7.5l0,0H76.9l0,0c-1.9,0-3.8,0.5-5.4,1.6
					l-9.7,6.8l-8.5,5.9l-2.9,2l-6-16.1c-1.8-4.7-7-7.1-11.8-5.4c-0.5,0.2-1,0.4-1.5,0.7c-3.7,2.2-5.5,6.9-3.9,11.1l7.7,20.5
					l4.8,12.9l0,0c0.9,2.5,3.7,3.5,6.5,1.5l0,0l0,0l7-4.9l0,0L71,118.4h5.1c0,0-13.5,84.8-12,84.8h12.3v51.3
					c0,5.6,4.5,10.1,10.1,10.1s10.1-4.5,10.1-10.1v-51.3h6.4v51.3c0,5.6,4.5,10.1,10.1,10.1s10.1-4.5,10.1-10.1v-51.3h12.3
					c1.5,0,2.5-1.2,2.3-2.7l-14.3-82.1h5.7l9,50.1c0.8,4.4,4.6,7.5,9,7.5c0.5,0,1.1,0,1.6-0.1C153.7,175,157,170.2,156.1,165.2"/>
				<path id="Fill-23" class="st0" d="M41.4,63l-9.1,1.4c-1.9,0.3-3.2,2.1-2.9,3.9l2.4,15.9c1.3-0.4,2.7-0.7,4-0.7
					c4.6,0,8.8,2.5,11,6.4c1.1-0.7,1.8-2,1.6-3.5l-3.1-20.5C45.1,64,43.3,62.7,41.4,63"/>
				<path id="Fill-24" class="st0" d="M107.6,33.4c-15.6,0-28.3,12.7-28.3,28.4S92,90.2,107.6,90.2s28.3-12.7,28.3-28.4
					C136,46.1,123.3,33.4,107.6,33.4 M93.7,53.6c-2.6,0-4.6-2.1-4.6-4.6c0-2.6,2.1-4.6,4.6-4.6c2.6,0,4.6,2.1,4.6,4.6
					C98.3,51.5,96.2,53.6,93.7,53.6 M113.9,58.2c-2.6,0-4.6-2.1-4.6-4.6c0-2.6,2.1-4.6,4.6-4.6c2.6,0,4.6,2.1,4.6,4.6
					S116.5,58.2,113.9,58.2"/>
			</g>
		</g>
	</g>
</g>
<g id="process-2_4_">
	<g>
		<rect x="88.1" y="256.1" class="st0" width="65.5" height="4.7"/>
		<rect x="88.1" y="325.9" class="st0" width="65.5" height="4.7"/>
		<path class="st0" d="M156.2,330.6h-4.6v-102c0-7.6,6.1-13.7,13.7-13.7h2.1c2.5,0,4.6,2,4.6,4.6l0,0h-6.6c-5,0-9.1,4.1-9.1,9.1
			L156.2,330.6L156.2,330.6z"/>
		<rect x="133.7" y="217.5" class="st0" width="10.1" height="111.1"/>
		<path class="st0" d="M85.6,330.6h4.6v-102c0-7.6-6.1-13.7-13.7-13.7h-2.1c-2.5,0-4.6,2-4.6,4.6l0,0h6.6c5,0,9.1,4.1,9.1,9.1
			L85.6,330.6L85.6,330.6z"/>
		<rect x="115.8" y="217.5" class="st0" width="10.2" height="111.1"/>
		<rect x="98" y="217.5" class="st0" width="10.1" height="111.1"/>
		<path class="st0" d="M69.8,219.5L69.8,219.5c0-2.5,2-4.6,4.6-4.6h46.5h46.5c2.5,0,4.6,2,4.6,4.6l0,0h-51.1H69.8z"/>
	</g>
</g>
<g>
	<polygon class="st0" points="163.9,83.9 181,83.9 188.9,123.6 	"/>
	<path class="st0" d="M278.2,38.9H108c-12.9,0.2-23.2,10.9-23,23.9c0.2,12.6,10.4,22.7,23,23h170.2c12.9,0.2,23.6-10,23.9-23
		c0.2-12.9-10-23.6-23-23.9C278.8,38.9,278.5,38.9,278.2,38.9z"/>
	<path class="st1" d="M242,46.8H109.5c-8.7,0-15.8,7.1-15.8,15.8s7.1,15.8,15.8,15.8H242c8.7,0,15.8-7.1,15.8-15.8
		S250.7,46.8,242,46.8z"/>
	<circle class="st2" cx="278.2" cy="62.3" r="17.2"/>
	<path class="st0" d="M289.2,62.7c0.2-0.1,0.3-0.3,0.3-0.5c0-0.1-0.1-0.2-0.3-0.3l-16.9-9.8c-0.4-0.2-0.6,0-0.5,0.4l1.4,7.6
		c0.1,0.5,0.5,0.8,0.9,0.9l7.9,1c0.4,0.1,0.5,0.2,0.5,0.3s-0.1,0.2-0.5,0.3l-7.9,1c-0.5,0.1-0.8,0.4-0.9,0.9l-1.4,7.6
		c-0.1,0.4,0.2,0.6,0.5,0.4L289.2,62.7z"/>
	<line class="st3" x1="237.5" y1="53.6" x2="237.5" y2="70.9"/>
	<g>
		<path class="st4" d="M113.4,64.1v5.4H112V57.5h1.3v5.3h6.9v-5.3h1.3v11.9h-1.3v-5.4H113.4z"/>
		<path class="st4" d="M128.8,68.5c1.2,0,2.1-0.5,2.8-1.2l0.8,0.7c-0.9,1-2,1.6-3.6,1.6c-2.4,0-4.4-1.9-4.4-4.6
			c0-2.5,1.8-4.6,4.2-4.6c2.6,0,4.1,2.1,4.1,4.7c0,0.1,0,0.3,0,0.4h-7C125.9,67.4,127.3,68.5,128.8,68.5z M131.4,64.5
			c-0.1-1.6-1.1-3-2.8-3c-1.5,0-2.7,1.3-2.9,3H131.4z"/>
		<path class="st4" d="M135.4,69.4V57h1.3v12.4H135.4z"/>
		<path class="st4" d="M140.1,69.4V57h1.3v12.4H140.1z"/>
		<path class="st4" d="M148.7,69.6c-2.6,0-4.6-2.1-4.6-4.6c0-2.5,1.9-4.6,4.6-4.6c2.6,0,4.6,2.1,4.6,4.6
			C153.4,67.5,151.4,69.6,148.7,69.6z M148.7,61.6c-1.9,0-3.2,1.5-3.2,3.4s1.4,3.4,3.2,3.4c1.9,0,3.2-1.5,3.2-3.4
			C152,63.1,150.6,61.6,148.7,61.6z"/>
		<path class="st4" d="M157.7,57.5v11.9h-1.3V57.5H157.7z"/>
		<path class="st4" d="M162.5,69.4h-1.3v-8.8h1.3v1.5c0.6-1,1.5-1.7,3-1.7c2.1,0,3.4,1.4,3.4,3.5v5.5h-1.3v-5.1
			c0-1.6-0.9-2.7-2.4-2.7c-1.5,0-2.6,1.1-2.6,2.8V69.4z"/>
		<path class="st4" d="M179,69.4v-1.8c-0.7,1.1-1.8,2-3.4,2c-2.1,0-4.2-1.7-4.2-4.6c0-2.9,2.1-4.6,4.2-4.6c1.6,0,2.7,0.9,3.4,1.9V57
			h1.3v12.4H179z M175.8,61.6c-1.7,0-3.1,1.3-3.1,3.4c0,2.1,1.4,3.4,3.1,3.4c1.6,0,3.2-1.4,3.2-3.4C179,63,177.5,61.6,175.8,61.6z"
			/>
		<path class="st4" d="M183.5,58.7v-1.4h1.5v1.4H183.5z M183.6,69.4v-8.8h1.3v8.8H183.6z"/>
		<path class="st4" d="M188.7,62.3l-0.4-1.1c1-0.4,1.9-0.7,3.2-0.7c2.4,0,3.7,1.2,3.7,3.5v5.4H194v-1.3c-0.6,0.8-1.6,1.5-3.2,1.5
			c-1.6,0-3.3-0.9-3.3-2.8c0-1.9,1.5-2.9,3.8-2.9c1.1,0,1.9,0.2,2.7,0.4v-0.3c0-1.6-1-2.4-2.6-2.4C190.3,61.7,189.5,61.9,188.7,62.3
			z M188.8,66.8c0,1.1,1,1.8,2.2,1.8c1.6,0,2.9-1,2.9-2.4v-0.9c-0.6-0.2-1.5-0.4-2.6-0.4C189.7,65,188.8,65.7,188.8,66.8z"/>
		<path class="st4" d="M198.8,60.6l-1-0.7c1.1-1.6,2.2-2.5,4.3-2.5c2.2,0,3.7,1.4,3.7,3.4c0,1.8-0.9,2.8-3,4.6l-3.2,2.8h6.3v1.2
			h-8.3v-1l4.3-3.8c1.8-1.6,2.5-2.5,2.5-3.7c0-1.4-1.1-2.3-2.4-2.3C200.7,58.5,199.8,59.3,198.8,60.6z"/>
		<path class="st4" d="M213.3,69.6c-3.1,0-5-2.8-5-6.1s2-6.2,5-6.2c3.1,0,5,2.8,5,6.1S216.4,69.6,213.3,69.6z M213.3,58.5
			c-2.2,0-3.6,2.3-3.6,4.9s1.4,4.9,3.7,4.9s3.6-2.3,3.6-4.9C216.9,60.9,215.5,58.5,213.3,58.5z"/>
		<path class="st4" d="M222.9,57.4h1v12h-1.3V58.8l-2.2,0.7l-0.3-1.1L222.9,57.4z"/>
		<path class="st4" d="M231.3,69.6c-2.5,0-4.5-1.4-4.5-3.4c0-1.4,1-2.4,2.4-2.9c-1.1-0.5-2-1.4-2-2.8c0-1.9,1.9-3.2,4.1-3.2
			s4.1,1.3,4.1,3.2c0,1.4-0.9,2.2-2,2.8c1.4,0.5,2.4,1.5,2.4,2.9C235.7,68.2,233.8,69.6,231.3,69.6z M231.3,63.9
			c-1.7,0-3.1,0.9-3.1,2.3c0,1.2,1.2,2.2,3.1,2.2s3.1-1,3.1-2.2C234.4,64.8,233,63.9,231.3,63.9z M231.3,58.5
			c-1.5,0-2.7,0.9-2.7,2.1c0,1.3,1.2,2.2,2.7,2.2s2.7-0.9,2.7-2.2C234,59.4,232.8,58.5,231.3,58.5z"/>
	</g>
</g>
<g>
	<path class="st5" d="M111.7,190h-38c-4.8,0-8.7-3.9-8.7-8.7v-15.6c0-4.8,3.9-8.7,8.7-8.7h38c4.8,0,8.7,3.9,8.7,8.7v15.6
		C120.4,186.1,116.5,190,111.7,190z"/>
	<g>
		<path class="st6" d="M85.8,175.2c0,1.9-1.6,3.6-3.5,3.5c-2,0-3.6-1.6-3.6-3.6c0-2,1.6-3.6,3.6-3.6
			C84.2,171.6,85.8,173.3,85.8,175.2z"/>
		<path class="st7" d="M93,171.6c1.9,0,3.5,1.6,3.5,3.6c0,2-1.6,3.6-3.6,3.6c-1.9,0-3.5-1.6-3.5-3.5C89.4,173.2,91,171.6,93,171.6z"
			/>
		<path class="st8" d="M99.9,175.2c0-2,1.6-3.5,3.6-3.5c2,0,3.5,1.6,3.5,3.6c0,1.9-1.6,3.5-3.6,3.5
			C101.5,178.7,99.9,177.1,99.9,175.2z"/>
	</g>
	<polygon class="st5" points="93.1,189 103.1,189 103.1,201.7 	"/>
</g>
</svg>
