<?xml version="1.0" encoding="utf-8"?>
<!-- Generator: Adobe Illustrator 22.1.0, SVG Export Plug-In . SVG Version: 6.00 Build 0)  -->
<svg version="1.1" xmlns="http://www.w3.org/2000/svg" xmlns:xlink="http://www.w3.org/1999/xlink" x="0px" y="0px"
	 viewBox="0 0 400 400" style="enable-background:new 0 0 400 400;" xml:space="preserve">
<style type="text/css">
	.st0{display:none;}
	.st1{display:inline;}
	.st2{fill:#FFFFFF;}
	.st3{fill:#0082FF;}
	.st4{opacity:0.5;fill:#E4E4E4;enable-background:new    ;}
	.st5{opacity:0.75;fill:#E4E4E4;enable-background:new    ;}
	.st6{fill:#E4E4E4;}
	.st7{fill:#EEEDED;stroke:#DDDDDC;}
	.st8{fill:#9DBFE0;}
	.st9{fill:none;stroke:#FFFFFF;stroke-width:1.5;stroke-linecap:round;stroke-linejoin:round;stroke-miterlimit:10;}
</style>
<g id="Layer_2" class="st0">
	<rect class="st1" width="400" height="400"/>
</g>
<g id="Layer_1">
	<title>process-3</title>
	<desc>Created with Sketch.</desc>
	<g id="Page-1_1_">
		<g id="process-3">
			<g id="Page-1" transform="translate(155.000000, 66.000000)">
				<g id="Group-31" transform="translate(0.000000, 0.008550)">
					<path id="Fill-22" class="st2" d="M156.1,165.2l-11.4-63.6c-0.8-4.4-4.7-7.5-9-7.5l0,0H76.9l0,0c-1.9,0-3.8,0.5-5.4,1.6
						l-9.7,6.8l-8.5,5.9l-2.9,2l-6-16.1c-1.8-4.7-7-7.1-11.8-5.4c-0.5,0.2-1,0.4-1.5,0.7c-3.7,2.2-5.5,6.9-3.9,11.1l7.7,20.5
						l4.8,12.9l0,0c0.9,2.5,3.7,3.5,6.5,1.5l0,0l0,0l7-4.9l0,0L71,118.4h5.1c0,0-13.5,84.8-12,84.8h12.3v51.3
						c0,5.6,4.5,10.1,10.1,10.1s10.1-4.5,10.1-10.1v-51.3h6.4v51.3c0,5.6,4.5,10.1,10.1,10.1s10.1-4.5,10.1-10.1v-51.3h12.3
						c1.5,0,2.5-1.2,2.3-2.7l-14.3-82.1h5.7l9,50.1c0.8,4.4,4.6,7.5,9,7.5c0.5,0,1.1,0,1.6-0.1C153.7,175,157,170.2,156.1,165.2"/>
					<path id="Fill-23" class="st2" d="M41.4,63l-9.1,1.4c-1.9,0.3-3.2,2.1-2.9,3.9l2.4,15.9c1.3-0.4,2.7-0.7,4-0.7
						c4.6,0,8.8,2.5,11,6.4c1.1-0.7,1.8-2,1.6-3.5l-3.1-20.5C45.1,64,43.3,62.7,41.4,63"/>
					<path id="Fill-24" class="st2" d="M107.6,33.4c-15.6,0-28.3,12.7-28.3,28.4S92,90.2,107.6,90.2s28.3-12.7,28.3-28.4
						C136,46.1,123.3,33.4,107.6,33.4 M93.7,53.6c-2.6,0-4.6-2.1-4.6-4.6c0-2.6,2.1-4.6,4.6-4.6c2.6,0,4.6,2.1,4.6,4.6
						C98.3,51.5,96.2,53.6,93.7,53.6 M113.9,58.2c-2.6,0-4.6-2.1-4.6-4.6c0-2.6,2.1-4.6,4.6-4.6c2.6,0,4.6,2.1,4.6,4.6
						S116.5,58.2,113.9,58.2"/>
				</g>
			</g>
		</g>
	</g>
	<g id="process-2_4_">
		<g>
			<rect x="88.1" y="256.1" class="st2" width="65.5" height="4.7"/>
			<rect x="88.1" y="325.9" class="st2" width="65.5" height="4.7"/>
			<path class="st2" d="M156.2,330.6h-4.6v-102c0-7.6,6.1-13.7,13.7-13.7h2.1c2.5,0,4.6,2,4.6,4.6l0,0h-6.6c-5,0-9.1,4.1-9.1,9.1
				L156.2,330.6L156.2,330.6z"/>
			<rect x="133.7" y="217.5" class="st2" width="10.1" height="111.1"/>
			<path class="st2" d="M85.6,330.6h4.6v-102c0-7.6-6.1-13.7-13.7-13.7h-2.1c-2.5,0-4.6,2-4.6,4.6l0,0h6.6c5,0,9.1,4.1,9.1,9.1
				L85.6,330.6L85.6,330.6z"/>
			<rect x="115.8" y="217.5" class="st2" width="10.2" height="111.1"/>
			<rect x="98" y="217.5" class="st2" width="10.1" height="111.1"/>
			<path class="st2" d="M69.8,219.5L69.8,219.5c0-2.5,2-4.6,4.6-4.6h46.5h46.5c2.5,0,4.6,2,4.6,4.6l0,0h-51.1H69.8z"/>
		</g>
	</g>
	<g>
		<path class="st3" d="M112.3,190H73.1c-4.5,0-8.1-3.6-8.1-8.1v-16.8c0-4.5,3.6-8.1,8.1-8.1h39.2c4.5,0,8.1,3.6,8.1,8.1v16.8
			C120.4,186.4,116.8,190,112.3,190z"/>
		<g>
			<path class="st4" d="M85.8,175.2c0,1.9-1.6,3.6-3.5,3.5c-2,0-3.6-1.6-3.6-3.6s1.6-3.6,3.6-3.6C84.2,171.6,85.8,173.3,85.8,175.2z
				"/>
			<path class="st5" d="M93,171.6c1.9,0,3.5,1.6,3.5,3.6s-1.6,3.6-3.6,3.6c-1.9,0-3.5-1.6-3.5-3.5C89.4,173.2,91,171.6,93,171.6z"/>
			<path class="st6" d="M99.9,175.2c0-2,1.6-3.5,3.6-3.5s3.5,1.6,3.5,3.6c0,1.9-1.6,3.5-3.6,3.5C101.5,178.7,99.9,177.1,99.9,175.2z
				"/>
		</g>
		<path class="st3" d="M93.1,189h10v10.7c0,0.7-0.8,1-1.3,0.4L93.1,189z"/>
	</g>
	<g>
		<path class="st2" d="M270.2,42.4l-168.9,0c-4.5,0-8.1,3.6-8.1,8.1v31.1c0,4.5,3.6,8.1,8.1,8.1l168.9,0c4.5,0,8.1-3.6,8.1-8.1V50.5
			C278.3,46.1,274.7,42.4,270.2,42.4z"/>
		<path class="st2" d="M157.9,87.9H175l9.8,30.2c0.2,0.7-0.7,1.3-1.2,0.7L157.9,87.9z"/>
		<path class="st3" d="M269.7,66.6c0.2-0.1,0.3-0.3,0.3-0.6c0-0.1-0.1-0.2-0.3-0.3l-19.5-11.3c-0.5-0.2-0.7,0-0.6,0.5l1.6,8.8
			c0.1,0.6,0.6,0.9,1,1l9.1,1.2c0.5,0.1,0.6,0.2,0.6,0.3s-0.1,0.2-0.6,0.3l-9.1,1.2c-0.6,0.1-0.9,0.5-1,1l-1.6,8.8
			c-0.1,0.5,0.2,0.7,0.6,0.5L269.7,66.6z"/>
		<path class="st7" d="M228.5,81.6h-81.2c-8.6,0-15.6-7-15.6-15.6v0c0-8.6,7-15.6,15.6-15.6h81.2c8.6,0,15.6,7,15.6,15.6v1
			C244.1,75.6,237.2,81.6,228.5,81.6z"/>
		<g>
			<path d="M143.4,66.4v3.7h-1.5v-8.7h1.5V65h4.2v-3.6h1.5v8.7h-1.5v-3.7H143.4z"/>
			<path d="M154.2,69c0.7,0,1.3-0.3,1.8-0.8l0.9,0.8c-0.6,0.7-1.5,1.2-2.7,1.2c-1.9,0-3.4-1.4-3.4-3.4c0-1.9,1.3-3.4,3.2-3.4
				c2.1,0,3.2,1.6,3.2,3.6c0,0.1,0,0.3,0,0.4h-4.8C152.5,68.4,153.2,69,154.2,69z M155.7,66.4c-0.1-1-0.7-1.7-1.7-1.7
				c-0.9,0-1.6,0.7-1.7,1.7H155.7z"/>
			<path d="M158.8,70.1V61h1.5v9.1H158.8z"/>
			<path d="M162.4,70.1V61h1.5v9.1H162.4z"/>
			<path d="M169,70.3c-2,0-3.5-1.5-3.5-3.4c0-1.9,1.5-3.5,3.5-3.5s3.5,1.5,3.5,3.4C172.5,68.7,171,70.3,169,70.3z M169,64.7
				c-1.2,0-2,0.9-2,2.1c0,1.2,0.8,2.1,2,2.1c1.2,0,2-0.9,2-2.1C171,65.7,170.1,64.7,169,64.7z"/>
			<path d="M182.1,70.3c-2.7,0-4.6-2-4.6-4.5c0-2.5,1.9-4.5,4.6-4.5c2.7,0,4.6,2,4.6,4.5C186.7,68.2,184.8,70.3,182.1,70.3z
				 M182.1,62.6c-1.7,0-2.9,1.4-2.9,3.1c0,1.7,1.2,3.1,3,3.1s2.9-1.4,2.9-3.1C185.1,64.1,183.8,62.6,182.1,62.6z"/>
			<path d="M192.1,70.2c-1.1,0-1.8-0.5-2.2-1.2v1h-1.5V61h1.5v3.6c0.5-0.7,1.2-1.2,2.2-1.2c1.6,0,3.1,1.2,3.1,3.4
				C195.2,69,193.7,70.2,192.1,70.2z M191.7,64.7c-1,0-1.9,0.8-1.9,2.1c0,1.3,0.9,2.1,1.9,2.1c1,0,1.9-0.8,1.9-2.1
				C193.6,65.5,192.8,64.7,191.7,64.7z"/>
			<path d="M198.3,63.5v6.7c0,1.3-0.7,1.9-1.9,1.9c-0.3,0-0.5,0-0.7-0.1v-1.2c0.1,0,0.3,0,0.4,0c0.4,0,0.7-0.2,0.7-0.8v-6.6H198.3z
				 M196.7,62.5v-1.4h1.6v1.4H196.7z"/>
			<path d="M203.3,69c0.7,0,1.3-0.3,1.8-0.8L206,69c-0.6,0.7-1.5,1.2-2.7,1.2c-1.9,0-3.4-1.4-3.4-3.4c0-1.9,1.3-3.4,3.2-3.4
				c2.1,0,3.2,1.6,3.2,3.6c0,0.1,0,0.3,0,0.4h-4.8C201.6,68.4,202.3,69,203.3,69z M204.8,66.4c-0.1-1-0.7-1.7-1.7-1.7
				c-0.9,0-1.6,0.7-1.7,1.7H204.8z"/>
			<path d="M210.8,70.3c-2,0-3.4-1.5-3.4-3.4s1.4-3.5,3.4-3.5c1.2,0,2,0.5,2.6,1.1l-0.9,1c-0.5-0.5-0.9-0.8-1.7-0.8
				c-1.1,0-1.9,0.9-1.9,2.1c0,1.2,0.8,2.1,2,2.1c0.7,0,1.2-0.3,1.7-0.8l0.9,0.9C212.9,69.7,212.1,70.3,210.8,70.3z"/>
			<path d="M216.7,68.1c0,0.6,0.3,0.8,0.8,0.8c0.3,0,0.6-0.1,0.9-0.2v1.2c-0.4,0.2-0.8,0.3-1.4,0.3c-1.1,0-1.9-0.5-1.9-1.9v-3.5
				h-0.8v-1.3h0.8v-1.8h1.5v1.8h1.8v1.3h-1.8V68.1z"/>
			<path d="M219.9,70.1v-1.7h1.7v1.7H219.9z"/>
			<path d="M223.3,70.1v-1.7h1.7v1.7H223.3z"/>
			<path d="M226.6,70.1v-1.7h1.7v1.7H226.6z"/>
		</g>
		<g>
			<path class="st8" d="M229,73.4c-0.4,0-0.6-0.3-0.6-0.6V58.3c0-0.4,0.3-0.6,0.6-0.6c0.4,0,0.6,0.3,0.6,0.6v14.5
				C229.7,73.1,229.4,73.4,229,73.4z"/>
		</g>
		<circle class="st3" cx="114.5" cy="66.1" r="10.6"/>
		<polyline class="st9" points="113.3,62.5 116.8,66.1 113.3,69.7 		"/>
	</g>
</g>
</svg>
