<?xml version="1.0" encoding="utf-8"?>
<!-- Generator: Adobe Illustrator 22.1.0, SVG Export Plug-In . SVG Version: 6.00 Build 0)  -->
<svg version="1.1" id="Layer_1" xmlns="http://www.w3.org/2000/svg" xmlns:xlink="http://www.w3.org/1999/xlink" x="0px" y="0px"
	 viewBox="0 0 400 400" style="enable-background:new 0 0 400 400;" xml:space="preserve">
<style type="text/css">
	.st0{display:none;}
	.st1{display:inline;}
	.st2{fill:#FFFFFF;}
	.st3{display:none;fill:#2A2A2A;enable-background:new    ;}
	.st4{font-family:'GothamHTF-Black';}
	.st5{font-size:15.9016px;}
	.st6{fill:#0082FF;}
	.st7{display:none;fill:#676767;enable-background:new    ;}
	.st8{font-family:'GothamHTF-Medium';}
	.st9{font-size:16.2077px;}
	.st10{fill:#8D8D91;}
	.st11{enable-background:new    ;}
	.st12{fill:#9EC0E1;}
	.st13{fill:url(#SVGID_1_);}
	.st14{fill:none;stroke:#FFFFFF;stroke-width:3;stroke-miterlimit:10;}
	.st15{display:inline;fill:#448AFE;}
	.st16{display:inline;fill:#FFFFFF;}
	.st17{display:inline;fill:url(#SVGID_2_);}
	.st18{display:inline;fill:#FEFEFE;}
	.st19{display:inline;fill:#666666;}
	.st20{display:inline;fill:url(#SVGID_3_);}
	.st21{display:inline;fill:none;stroke:#448AFE;stroke-width:1.06;stroke-linecap:round;stroke-linejoin:round;}
	.st22{fill:#666666;}
	.st23{font-size:13.7485px;}
</style>
<g id="Layer_2_1_" class="st0">
	<rect class="st1" width="400" height="400"/>
</g>
<g id="Layer_1_1_">
	<title>process-2</title>
	<desc>Created with Sketch.</desc>
	<g id="Page-1_1_">
		<g id="process-2">
			<g id="Page-1" transform="translate(166.000000, 84.000000)">
				<g id="Group-31" transform="translate(0.000000, 0.140000)">
					<path id="Fill-23" class="st2" d="M167.5,130.3l-6-33.2l-4.7-26.3l-1.1-6.2c-0.8-4.6-4.8-7.8-9.3-7.8l0,0h-12.8h-9.2
						c-6,7-15,11.5-24.9,11.5s-18.9-4.5-24.9-11.5h-1.8l0,0c-4.5,0-8.5,3.2-9.3,7.8l-1.1,6.2l-4.7,26.3l-1.7,9.5l1.4,0.3
						c3.6,0.7,6.5,3.9,6.7,7.5l0.9,12.9c0.1,1.8-0.4,3.5-1.6,4.8c-1.1,1.2-2.6,1.8-4.3,1.8c-0.6,0-1.2-0.1-1.8-0.3l-5.7-1.6
						c0,4.5,3.2,8.4,7.8,9.3c0.6,0.1,1.1,0.1,1.7,0.1c4.5,0,8.5-3.2,9.3-7.8l9.3-51.8H85l-15,84.9c-0.3,1.5,0.8,2.8,2.3,2.8H85v53
						c0,5.8,4.7,10.4,10.4,10.4c5.8,0,10.4-4.7,10.4-10.4v-53h6.6v53c0,5.8,4.7,10.4,10.4,10.4c5.8,0,10.4-4.7,10.4-10.4v-53h12.7
						c1.6,0,2.6-1.3,2.4-2.8l-14.8-84.9h5.9l9.3,51.8c0.8,4.6,4.8,7.8,9.3,7.8c0.6,0,1.1,0,1.7-0.1
						C165,140.4,168.5,135.5,167.5,130.3"/>
					<path id="Fill-24" class="st2" d="M45.2,108.4c-1.5,0-2.3,1.2-1.8,2.8l4.2,12.9c0.1,0.2,0.2,0.5,0.3,0.7l0.2,0.3l0.2,0.4
						l0.3,0.4l0.2,0.2c0.1,0.2,0.3,0.3,0.4,0.5l0.1,0.1c0.2,0.2,0.4,0.4,0.6,0.5l0,0c0.6,0.5,1.3,0.9,2,1.1l0,0l0.3,0.1l5.9,1.6
						c0.3,0.1,0.6,0.1,0.9,0.1c1.4,0,2.4-1.1,2.3-2.8l-0.9-12.9c-0.1-2-1.8-3.9-3.8-4.2l-1.4-0.3l-9.3-1.7
						C45.6,108.4,45.4,108.4,45.2,108.4"/>
					<path id="Fill-25" class="st2" d="M99.4,6C83.2,6,70,19.1,70,35.3s13.1,29.3,29.3,29.3s29.3-13.1,29.3-29.3
						C128.7,19.1,115.6,6,99.4,6 M81.2,50.8c-2.6,0-4.8-2.1-4.8-4.8c0-2.6,2.1-4.8,4.8-4.8c2.6,0,4.8,2.1,4.8,4.8
						S83.9,50.8,81.2,50.8 M100.4,53.7c-2.6,0-4.8-2.1-4.8-4.8c0-2.6,2.1-4.8,4.8-4.8c2.6,0,4.8,2.1,4.8,4.8
						C105.2,51.6,103,53.7,100.4,53.7"/>
				</g>
			</g>
			<g id="process-2_4_">
				<g>
					<rect x="88.1" y="241.1" class="st2" width="65.5" height="4.7"/>
					<rect x="88.1" y="310.9" class="st2" width="65.5" height="4.7"/>
					<path class="st2" d="M156.2,315.6h-4.6v-102c0-7.6,6.1-13.7,13.7-13.7h2.1c2.5,0,4.6,2,4.6,4.6l0,0h-6.6c-5,0-9.1,4.1-9.1,9.1
						L156.2,315.6L156.2,315.6z"/>
					<rect x="133.7" y="202.5" class="st2" width="10.1" height="111.1"/>
					<path class="st2" d="M85.6,315.6h4.6v-102c0-7.6-6.1-13.7-13.7-13.7h-2.1c-2.5,0-4.6,2-4.6,4.6l0,0h6.6c5,0,9.1,4.1,9.1,9.1
						L85.6,315.6L85.6,315.6z"/>
					<rect x="115.8" y="202.5" class="st2" width="10.2" height="111.1"/>
					<rect x="98" y="202.5" class="st2" width="10.1" height="111.1"/>
					<path class="st2" d="M69.8,204.5L69.8,204.5c0-2.5,2-4.6,4.6-4.6h46.5h46.5c2.5,0,4.6,2,4.6,4.6l0,0h-51.1H69.8z"/>
				</g>
			</g>
		</g>
	</g>
	<g id="_x33__1_">
		<text id="text_3_" transform="matrix(0.9717 -0.2362 0.2362 0.9717 92.7686 255.9927)" class="st3 st4 st5">#CODE</text>
	</g>
	<g>
		<path class="st6" d="M210.1,182l-9.3-9.4H14.6c-4.5,0-8.1-3.6-8.1-8.1v-24.4c0-4.5,3.6-8.1,8.1-8.1h189.8c4.5,0,8.1,3.6,8.1,8.1
			v32.4v8.5C212.5,182.2,211,182.9,210.1,182z"/>
		<text transform="matrix(1 0 0 1 69.4097 154.3027)" class="st7 st8 st9">HelloIndia2018</text>
		<g>
			<path class="st2" d="M192.3,166.9H86.6c-7.9,0-14.3-6.4-14.3-14.3l0,0c0-7.9,6.4-14.3,14.3-14.3h105.7c7.9,0,14.3,6.4,14.3,14.3
				l0,0C206.6,160.6,200.2,166.9,192.3,166.9z"/>
			<g>
				<path class="st10" d="M86.5,153.8c1.5-1.8,1.2-4.5-0.5-6s-4.2-1.5-5.9,0.1c-1.9,1.7-1.9,4.6-0.1,6.3c1.6,1.6,4.1,1.7,5.9,0.3
					l3.4,3.4c0.2,0.2,0.5,0.2,0.6,0l0,0c0.2-0.2,0.2-0.5,0-0.6L86.5,153.8z M85.7,153.6c-1.5,1.5-3.6,1.5-5.1,0s-1.5-3.6,0-5.1
					s3.6-1.5,5.1,0C87,150,87,152.3,85.7,153.6z"/>
			</g>
			<g class="st11">
				<path d="M108.8,153v3.4h-1.4v-8h1.4v3.3h3.8v-3.3h1.4v8h-1.4V153H108.8z"/>
				<path d="M118.7,155.4c0.7,0,1.2-0.3,1.6-0.7l0.8,0.7c-0.6,0.7-1.4,1.1-2.5,1.1c-1.7,0-3.1-1.3-3.1-3.1c0-1.7,1.2-3.2,2.9-3.2
					c1.9,0,2.9,1.5,2.9,3.3c0,0.1,0,0.2,0,0.4H117C117.1,154.8,117.8,155.4,118.7,155.4z M120.1,152.9c-0.1-0.9-0.6-1.6-1.5-1.6
					c-0.8,0-1.4,0.7-1.6,1.6H120.1z"/>
				<path d="M122.9,156.4V148h1.4v8.3L122.9,156.4L122.9,156.4z"/>
				<path d="M126.2,156.4V148h1.4v8.3L126.2,156.4L126.2,156.4z"/>
				<path d="M132.3,156.5c-1.8,0-3.2-1.4-3.2-3.1c0-1.7,1.4-3.2,3.2-3.2c1.9,0,3.2,1.4,3.2,3.1C135.5,155.1,134.1,156.5,132.3,156.5
					z M132.3,151.4c-1.1,0-1.8,0.9-1.8,1.9c0,1.1,0.8,2,1.8,2c1.1,0,1.8-0.9,1.8-1.9C134.1,152.3,133.3,151.4,132.3,151.4z"/>
				<path d="M138.5,148.4v8h-1.4v-8H138.5z"/>
				<path d="M141.9,156.4h-1.4v-6h1.4v0.9c0.4-0.6,0.9-1.1,1.9-1.1c1.4,0,2.1,0.9,2.1,2.3v3.8h-1.4v-3.4c0-0.9-0.5-1.5-1.3-1.5
					s-1.4,0.6-1.4,1.5L141.9,156.4L141.9,156.4z"/>
				<path d="M152.2,156.4v-1c-0.4,0.6-1.1,1.1-2.1,1.1c-1.4,0-2.8-1.1-2.8-3.1s1.4-3.1,2.8-3.1c1,0,1.6,0.5,2.1,1.1V148h1.4v8.3
					L152.2,156.4L152.2,156.4z M150.4,151.4c-0.9,0-1.7,0.7-1.7,1.9s0.8,1.9,1.7,1.9s1.8-0.8,1.8-1.9S151.4,151.4,150.4,151.4z"/>
				<path d="M155.3,149.4v-1.3h1.5v1.3H155.3z M155.4,156.4v-6h1.4v6H155.4z"/>
				<path d="M162.2,156.4v-0.7c-0.4,0.5-1,0.9-2,0.9c-1.1,0-2.1-0.7-2.1-1.9l0,0c0-1.3,1-1.9,2.4-1.9c0.7,0,1.2,0.1,1.7,0.3V153
					c0-0.8-0.5-1.3-1.5-1.3c-0.7,0-1.2,0.1-1.7,0.4l-0.4-1.1c0.7-0.3,1.3-0.5,2.3-0.5c1.8,0,2.7,0.9,2.7,2.5v3.6h-1.4V156.4z
					 M162.3,153.8c-0.4-0.1-0.8-0.2-1.4-0.2c-0.9,0-1.4,0.4-1.4,1l0,0c0,0.6,0.5,0.9,1.2,0.9c0.9,0,1.6-0.5,1.6-1.3L162.3,153.8
					L162.3,153.8z"/>
				<path d="M166.1,150.7l-1-0.8c0.8-1.1,1.5-1.7,3-1.7c1.6,0,2.6,1,2.6,2.4c0,1.3-0.7,2-2.1,3.1l-1.6,1.4h3.8v1.2H165v-1.1l2.8-2.3
					c1.1-0.9,1.5-1.4,1.5-2.2s-0.6-1.2-1.3-1.2S166.7,149.9,166.1,150.7z"/>
				<path d="M175.5,156.5c-2.1,0-3.5-1.8-3.5-4.1s1.4-4.2,3.5-4.2s3.5,1.8,3.5,4.1C179,154.7,177.6,156.5,175.5,156.5z M175.5,149.5
					c-1.2,0-2,1.3-2,2.9c0,1.6,0.8,2.9,2,2.9s2-1.3,2-2.9C177.6,150.8,176.8,149.5,175.5,149.5z"/>
				<path d="M182.1,148.3h1v8.1h-1.4v-6.6l-1.4,0.4l-0.3-1.1L182.1,148.3z"/>
				<path d="M187.8,156.5c-1.7,0-3.1-0.9-3.1-2.3c0-1,0.5-1.6,1.4-2c-0.7-0.4-1.2-0.9-1.2-1.8c0-1.2,1.2-2.2,2.8-2.2
					s2.8,0.9,2.8,2.2c0,0.9-0.5,1.4-1.2,1.8c0.9,0.4,1.4,1,1.4,1.9C190.8,155.6,189.5,156.5,187.8,156.5z M187.8,152.9
					c-0.9,0-1.7,0.5-1.7,1.2s0.6,1.2,1.7,1.2c1.1,0,1.7-0.5,1.7-1.2C189.4,153.4,188.7,152.9,187.8,152.9z M187.8,149.4
					c-0.9,0-1.4,0.5-1.4,1.1c0,0.7,0.6,1.2,1.4,1.2c0.8,0,1.4-0.5,1.4-1.2C189.2,149.9,188.6,149.4,187.8,149.4z"/>
			</g>
			<g>
				<path class="st12" d="M191.5,159.4c-0.3,0-0.6-0.3-0.6-0.6v-13.3c0-0.3,0.3-0.6,0.6-0.6s0.6,0.3,0.6,0.6v13.3
					C192,159.1,191.8,159.4,191.5,159.4z"/>
			</g>
		</g>
		<g>
			<path class="st2" d="M33.8,166.8H18.5c-3.7,0-6.7-3-6.7-6.7v-15c0-3.7,3-6.7,6.7-6.7h15.3c3.7,0,6.7,3,6.7,6.7v15
				C40.5,163.8,37.5,166.8,33.8,166.8z"/>
			
				<linearGradient id="SVGID_1_" gradientUnits="userSpaceOnUse" x1="26.1933" y1="-1746.1536" x2="26.1933" y2="-1724.2535" gradientTransform="matrix(1 0 0 -1 0 -1582)">
				<stop  offset="0" style="stop-color:#3568B0"/>
				<stop  offset="0.1888" style="stop-color:#3571B7"/>
				<stop  offset="0.4967" style="stop-color:#3689C8"/>
				<stop  offset="0.8832" style="stop-color:#38B1E5"/>
				<stop  offset="1" style="stop-color:#38BEEF"/>
			</linearGradient>
			<path class="st13" d="M25.8,142.2c-5.1,0-9.4,3.4-10.3,8.4c-0.1,0.4-0.1,0.8-0.1,1.2c0,0.1,0,0.4,0,0.5l0,0
				c0,2.8,1.7,5.7,3.8,7.7v4h0.1l3.5-2.2c5.4,2.1,11.5-0.8,13.5-6.2c2.1-5.4-0.8-11-6.2-13c-1.3-0.4-2.9-0.5-3.9-0.5L25.8,142.2
				L25.8,142.2z"/>
			<path class="st2" d="M28,152.5l-3.1-2.8l-5.3,5.9l4.8-2.8l3.1,3l5.5-5.9L28,152.5z"/>
		</g>
		<g>
			<g>
				<line class="st14" x1="46.7" y1="152.6" x2="62.6" y2="152.6"/>
				<g>
					<polygon class="st2" points="56.4,157.9 61.6,152.6 56.4,147.4 60.8,147.4 66.1,152.6 60.8,157.9 					"/>
				</g>
			</g>
		</g>
	</g>
	<g class="st0">
		<path class="st15" d="M159.3,124.5l47.1,63.1c0.1,0.3,0.3,0.4,0.6,0.4h0.1c0.3,0,0.5-0.3,0.5-0.6l-26.9-63h-21.4L159.3,124.5
			L159.3,124.5z"/>
		<path class="st15" d="M28.6,91h188.1c2.2,0,3.9,1.8,3.9,3.9v26.5c0,2.2-1.8,3.9-3.9,3.9H28.6c-2.2,0-3.9-1.8-3.9-3.9V94.9
			C24.6,92.7,26.4,91,28.6,91z"/>
		<path class="st16" d="M32.6,96H51c1.6,0,2.9,1.3,2.9,2.9v18.4c0,1.6-1.3,2.9-2.9,2.9H32.6c-1.6,0-2.9-1.3-2.9-2.9V99
			C29.7,97.3,31,96,32.6,96z"/>
		
			<linearGradient id="SVGID_2_" gradientUnits="userSpaceOnUse" x1="189.8627" y1="-3687.1873" x2="189.8627" y2="-3691.708" gradientTransform="matrix(1 0 0 -1 -147.92 -3586.2671)">
			<stop  offset="0" style="stop-color:#649EFE"/>
			<stop  offset="1" style="stop-color:#448AFE"/>
		</linearGradient>
		<path class="st17" d="M41.8,100.4c-3.8,0-7,2.7-7.6,6.4c-0.1,0.3-0.1,0.6-0.1,0.9c0,0.1,0,0.3,0,0.4l0,0c0,2.1,0.9,4.2,2.5,5.7
			v3.2h0.1l2.6-1.6c4,1.5,8.5-0.6,10-4.6s-0.6-8.5-4.6-10C43.7,100.5,42.8,100.3,41.8,100.4L41.8,100.4z M46.5,106.2l-1.8,2
			l-2.1,2.3h-0.1l-1.9-1.9h-0.1l-3.5,1.9h-0.1l0,0l0.3-0.3l2-2.2l1.7-1.9c0,0,0,0,0.1,0l2,1.9h0.1l0,0l3.5-1.9h0.1l0,0L46.5,106.2z"
			/>
		<path class="st18" d="M46.6,106.1l-3.5,1.9H43l-1.9-2c0,0,0,0-0.1,0l-1.7,1.9l-2,2.2l-0.3,0.3l0,0h0.1l3.5-1.9h0.1l0,0l2,1.9h0.1
			l2.1-2.3L46.6,106.1L46.6,106.1L46.6,106.1L46.6,106.1z"/>
		<path class="st16" d="M203.4,96H87.5c-6.7,0-12.1,5.4-12.1,12.1s5.4,12.1,12.1,12.1l0,0h115.9c6.7,0,12.1-5.4,12.1-12.1
			C215.6,101.5,210.1,96,203.4,96z"/>
		<path class="st19" d="M94.3,112.7l-2.8-2.8c-0.1-0.1-0.4-0.1-0.5,0l0,0l-1-1l0.1-0.1c0.7-0.9,1-1.9,0.8-3
			c-0.2-1.7-1.5-3.1-3.2-3.5l-0.5-0.1h-0.7l-0.5,0.1c-1.7,0.4-3,1.8-3.2,3.5v0.2v0.7v0.1c0,0.2,0.1,0.5,0.2,0.7
			c0.7,2.2,3,3.4,5.1,2.7c0.4-0.1,0.8-0.3,1.1-0.6l0.2-0.1l1,1l-0.1,0.1c-0.1,0.1-0.1,0.4,0,0.5l2.8,2.8c0.1,0.1,0.4,0.1,0.5,0l0,0
			l0.8-0.8C94.4,113,94.4,112.8,94.3,112.7L94.3,112.7z M86.8,109.6c-1.8,0-3.2-1.5-3.2-3.2c0-1.8,1.5-3.2,3.2-3.2
			c1.8,0,3.2,1.4,3.2,3.2S88.6,109.6,86.8,109.6L86.8,109.6z"/>
		<g class="st1">
			<rect x="58.9" y="106.8" class="st2" width="9" height="2.6"/>
		</g>
		<polygon class="st16" points="62.7,103.7 67.2,108.2 62.7,112.6 66.5,112.6 70.9,108.2 66.5,103.7 		"/>
		
			<linearGradient id="SVGID_3_" gradientUnits="userSpaceOnUse" x1="189.8627" y1="-3687.1873" x2="189.8627" y2="-3691.708" gradientTransform="matrix(1 0 0 -1 -147.92 -3586.2671)">
			<stop  offset="0" style="stop-color:#649EFE"/>
			<stop  offset="1" style="stop-color:#448AFE"/>
		</linearGradient>
		<path class="st20" d="M41.8,100.4c-3.8,0-7,2.7-7.6,6.4c-0.1,0.3-0.1,0.6-0.1,0.9c0,0.1,0,0.3,0,0.4l0,0c0,2.1,0.9,4.2,2.5,5.7
			v3.2h0.1l2.6-1.6c4,1.5,8.5-0.6,10-4.6s-0.6-8.5-4.6-10C43.7,100.5,42.8,100.3,41.8,100.4L41.8,100.4z M46.6,106.2l-1.8,2
			l-2.1,2.3h-0.1l-1.9-1.9h-0.1l-3.5,1.9H37l0,0l0.3-0.3l2-2.2l1.7-1.9c0,0,0,0,0.1,0l2,1.9h0.1l0,0L46.6,106.2l0.2-0.1l0,0
			L46.6,106.2z"/>
		<path class="st19" d="M94.3,112.7l-2.8-2.8c-0.1-0.1-0.4-0.1-0.5,0l0,0l-1-1l0.1-0.1c0.7-0.9,1-1.9,0.8-3
			c-0.2-1.7-1.5-3.1-3.2-3.5l-0.5-0.1h-0.7l-0.5,0.1c-1.7,0.4-3,1.8-3.2,3.5v0.2v0.7v0.1c0,0.2,0.1,0.5,0.2,0.7
			c0.7,2.2,3,3.4,5.1,2.7c0.4-0.1,0.8-0.3,1.1-0.6l0.2-0.1l1,1l-0.1,0.1c-0.1,0.1-0.1,0.4,0,0.5l2.8,2.8c0.1,0.1,0.4,0.1,0.5,0l0,0
			l0.8-0.8C94.4,113,94.4,112.8,94.3,112.7L94.3,112.7z M86.8,109.6c-1.8,0-3.2-1.5-3.2-3.2c0-1.8,1.5-3.2,3.2-3.2
			c1.8,0,3.2,1.4,3.2,3.2C90.1,108.2,88.6,109.6,86.8,109.6L86.8,109.6z"/>
		<line class="st21" x1="203" y1="101" x2="203" y2="115.3"/>
		<g class="st1">
			<path class="st22" d="M102.1,109.5v4.1h-1.7V104h1.7v4h4.6v-4h1.7v9.6h-1.7v-4.1H102.1z"/>
			<path class="st22" d="M114.1,112.4c0.8,0,1.4-0.3,2-0.9l1,0.9c-0.7,0.8-1.6,1.4-3,1.4c-2.1,0-3.7-1.5-3.7-3.8
				c0-2.1,1.5-3.8,3.5-3.8c2.3,0,3.5,1.8,3.5,3.9c0,0.2,0,0.3,0,0.5H112C112.2,111.7,113,112.4,114.1,112.4z M115.7,109.4
				c-0.1-1.1-0.7-1.9-1.8-1.9c-1,0-1.7,0.8-1.9,1.9H115.7z"/>
			<path class="st22" d="M119.1,113.6v-10h1.7v10H119.1z"/>
			<path class="st22" d="M123,113.6v-10h1.7v10H123z"/>
			<path class="st22" d="M130.3,113.7c-2.2,0-3.8-1.7-3.8-3.8c0-2.1,1.6-3.8,3.9-3.8c2.2,0,3.9,1.7,3.9,3.8
				C134.2,112,132.6,113.7,130.3,113.7z M130.3,107.6c-1.3,0-2.2,1-2.2,2.3s0.9,2.4,2.2,2.4s2.2-1,2.2-2.3
				C132.6,108.7,131.6,107.6,130.3,107.6z"/>
			<path class="st22" d="M137.9,104v9.6h-1.7V104H137.9z"/>
			<path class="st22" d="M141.9,113.6h-1.7v-7.3h1.7v1.1c0.5-0.7,1.1-1.3,2.3-1.3c1.6,0,2.6,1.1,2.6,2.8v4.6h-1.7v-4.1
				c0-1.1-0.6-1.8-1.6-1.8s-1.6,0.7-1.6,1.8V113.6z"/>
			<path class="st22" d="M154.3,113.6v-1.2c-0.5,0.8-1.3,1.4-2.5,1.4c-1.7,0-3.4-1.4-3.4-3.8s1.6-3.8,3.4-3.8c1.2,0,2,0.6,2.5,1.3
				v-3.9h1.7v10H154.3z M152.2,107.6c-1.1,0-2.1,0.9-2.1,2.3s1,2.3,2.1,2.3s2.1-0.9,2.1-2.3S153.3,107.6,152.2,107.6z"/>
			<path class="st22" d="M158,105.2v-1.6h1.8v1.6H158z M158.1,113.6v-7.3h1.7v7.3H158.1z"/>
			<path class="st22" d="M166.4,113.6v-0.9c-0.5,0.6-1.3,1-2.4,1c-1.4,0-2.6-0.8-2.6-2.2l0,0c0-1.6,1.3-2.3,2.9-2.3
				c0.9,0,1.4,0.1,2,0.3v-0.2c0-1-0.6-1.6-1.8-1.6c-0.8,0-1.4,0.2-2.1,0.5l-0.5-1.3c0.8-0.4,1.6-0.6,2.8-0.6c2.1,0,3.2,1.1,3.2,3.1
				v4.3h-1.5L166.4,113.6L166.4,113.6z M166.4,110.5c-0.4-0.2-1-0.3-1.7-0.3c-1,0-1.7,0.4-1.7,1.2l0,0c0,0.7,0.6,1.1,1.4,1.1
				c1.1,0,1.9-0.6,1.9-1.5v-0.5C166.3,110.5,166.4,110.5,166.4,110.5z"/>
			<path class="st22" d="M171,106.8l-1.2-0.9c0.9-1.3,1.8-2,3.5-2c1.9,0,3.2,1.2,3.2,2.9c0,1.5-0.8,2.4-2.5,3.7l-2,1.6h4.6v1.5h-7
				v-1.3l3.3-2.8c1.3-1.1,1.8-1.7,1.8-2.6s-0.7-1.5-1.6-1.5S171.7,105.8,171,106.8z"/>
			<path class="st22" d="M182.3,113.7c-2.5,0-4.2-2.2-4.2-5s1.7-5,4.2-5s4.2,2.2,4.2,5C186.6,111.5,184.9,113.7,182.3,113.7z
				 M182.3,105.3c-1.5,0-2.4,1.5-2.4,3.4s1,3.5,2.5,3.5s2.4-1.5,2.4-3.4S183.8,105.3,182.3,105.3z"/>
			<path class="st22" d="M190.2,103.9h1.2v9.7h-1.7v-8l-1.7,0.5l-0.4-1.4L190.2,103.9z"/>
			<path class="st22" d="M197,113.7c-2.1,0-3.7-1.1-3.7-2.8c0-1.2,0.6-1.9,1.7-2.4c-0.8-0.4-1.4-1.1-1.4-2.2c0-1.5,1.4-2.6,3.3-2.6
				s3.3,1.1,3.3,2.6c0,1.1-0.6,1.7-1.4,2.2c1,0.5,1.7,1.2,1.7,2.3C200.7,112.6,199.2,113.7,197,113.7z M197,109.4
				c-1.1,0-2,0.6-2,1.5c0,0.8,0.8,1.5,2,1.5s2-0.6,2-1.5C199.1,109.9,198.2,109.4,197,109.4z M197,105.2c-1,0-1.7,0.6-1.7,1.3
				c0,0.9,0.7,1.4,1.7,1.4s1.7-0.6,1.7-1.4C198.8,105.8,198.1,105.2,197,105.2z"/>
		</g>
		<text transform="matrix(1 0 0 1 99.214 113.5776)" class="st19 st8 st23">HelloIndia2018</text>
	</g>
</g>
<g>
	<path d="M102.1,155.6c-1,0-1.5-0.4-1.8-0.7c-0.4,0.4-1,0.7-1.8,0.7c-1.2,0-2.2-0.9-2.2-2.3c0-1.7,1.3-3,2.7-3
		c0.8,0,1.3,0.4,1.7,0.8l0.1-0.6l1.4,0.2l-0.6,3.2c0,0.1,0,0.3,0,0.4c0,0.4,0.3,0.8,0.9,0.8c0.9,0,1.5-0.9,1.5-2.4
		c0-2.2-2-4.3-4.7-4.3c-2.7,0-4.7,2.1-4.7,4.8c0,2.6,2,4.7,4.8,4.7c1.2,0,2-0.3,2.9-0.8l0.2,0.4c-0.9,0.6-1.9,0.9-3.2,0.9
		c-3.1,0-5.3-2.4-5.3-5.2c0-2.9,2.3-5.3,5.3-5.3s5.2,2.3,5.2,4.7C104.5,154.6,103.5,155.6,102.1,155.6z M99.3,151.5
		c-0.8,0-1.4,0.7-1.4,1.7c0,0.7,0.5,1.2,1.1,1.2c0.8,0,1.4-0.7,1.4-1.7C100.4,152,99.9,151.5,99.3,151.5z"/>
</g>
</svg>
