<?xml version="1.0" encoding="utf-8"?>
<!-- Generator: Adobe Illustrator 22.0.1, SVG Export Plug-In . SVG Version: 6.00 Build 0)  -->
<svg version="1.1" id="Layer_1" xmlns="http://www.w3.org/2000/svg" xmlns:xlink="http://www.w3.org/1999/xlink" x="0px" y="0px"
	 viewBox="0 0 400 400" style="enable-background:new 0 0 400 400;" xml:space="preserve">
<style type="text/css">
	.st0{fill:#FFFFFF;}
	.st1{display:none;fill:#2A2A2A;enable-background:new    ;}
	.st2{font-family:'GothamHTF-Black';}
	.st3{font-size:15.9016px;}
	.st4{fill:#448AFE;}
	.st5{fill:url(#SVGID_1_);}
	.st6{fill:#FEFEFE;}
	.st7{fill:#666666;}
	.st8{fill:url(#SVGID_2_);}
	.st9{fill:none;stroke:#448AFE;stroke-width:1.06;stroke-linecap:round;stroke-linejoin:round;}
	.st10{display:none;fill:#666666;}
	.st11{font-family:'GothamHTF-Medium';}
	.st12{font-size:13.7485px;}
</style>
<title>process-2</title>
<desc>Created with Sketch.</desc>
<g id="Page-1_1_">
	<g id="process-2">
		<g id="Page-1" transform="translate(166.000000, 84.000000)">
			<g id="Group-31" transform="translate(0.000000, 0.140000)">
				<path id="Fill-23" class="st0" d="M167.5,130.3l-6-33.2l-4.7-26.3l-1.1-6.2c-0.8-4.6-4.8-7.8-9.3-7.8l0,0h-12.8h-9.2
					c-6,7-15,11.5-24.9,11.5s-18.9-4.5-24.9-11.5h-1.8l0,0c-4.5,0-8.5,3.2-9.3,7.8l-1.1,6.2l-4.7,26.3l-1.7,9.5l1.4,0.3
					c3.6,0.7,6.5,3.9,6.7,7.5l0.9,12.9c0.1,1.8-0.4,3.5-1.6,4.8c-1.1,1.2-2.6,1.8-4.3,1.8c-0.6,0-1.2-0.1-1.8-0.3l-5.7-1.6
					c0,4.5,3.2,8.4,7.8,9.3c0.6,0.1,1.1,0.1,1.7,0.1c4.5,0,8.5-3.2,9.3-7.8l9.3-51.8H85l-15,84.9c-0.3,1.5,0.8,2.8,2.3,2.8H85v53
					c0,5.8,4.7,10.4,10.4,10.4c5.8,0,10.4-4.7,10.4-10.4v-53h6.6v53c0,5.8,4.7,10.4,10.4,10.4c5.8,0,10.4-4.7,10.4-10.4v-53h12.7
					c1.6,0,2.6-1.3,2.4-2.8l-14.8-84.9h5.9l9.3,51.8c0.8,4.6,4.8,7.8,9.3,7.8c0.6,0,1.1,0,1.7-0.1
					C165,140.4,168.5,135.5,167.5,130.3"/>
				<path id="Fill-24" class="st0" d="M45.2,108.4c-1.5,0-2.3,1.2-1.8,2.8l4.2,12.9c0.1,0.2,0.2,0.5,0.3,0.7l0.2,0.3l0.2,0.4
					l0.3,0.4l0.2,0.2c0.1,0.2,0.3,0.3,0.4,0.5l0.1,0.1c0.2,0.2,0.4,0.4,0.6,0.5l0,0c0.6,0.5,1.3,0.9,2,1.1l0,0l0.3,0.1l5.9,1.6
					c0.3,0.1,0.6,0.1,0.9,0.1c1.4,0,2.4-1.1,2.3-2.8l-0.9-12.9c-0.1-2-1.8-3.9-3.8-4.2l-1.4-0.3l-9.3-1.7
					C45.6,108.4,45.4,108.4,45.2,108.4"/>
				<path id="Fill-25" class="st0" d="M99.4,6C83.2,6,70,19.1,70,35.3s13.1,29.3,29.3,29.3s29.3-13.1,29.3-29.3
					C128.7,19.1,115.6,6,99.4,6 M81.2,50.8c-2.6,0-4.8-2.1-4.8-4.8c0-2.6,2.1-4.8,4.8-4.8c2.6,0,4.8,2.1,4.8,4.8
					S83.9,50.8,81.2,50.8 M100.4,53.7c-2.6,0-4.8-2.1-4.8-4.8c0-2.6,2.1-4.8,4.8-4.8c2.6,0,4.8,2.1,4.8,4.8
					C105.2,51.6,103,53.7,100.4,53.7"/>
			</g>
		</g>
		<g id="process-2_4_">
			<g>
				<rect x="88.1" y="241.1" class="st0" width="65.5" height="4.7"/>
				<rect x="88.1" y="310.9" class="st0" width="65.5" height="4.7"/>
				<path class="st0" d="M156.2,315.6h-4.6v-102c0-7.6,6.1-13.7,13.7-13.7h2.1c2.5,0,4.6,2,4.6,4.6l0,0h-6.6c-5,0-9.1,4.1-9.1,9.1
					L156.2,315.6L156.2,315.6z"/>
				<rect x="133.7" y="202.5" class="st0" width="10.1" height="111.1"/>
				<path class="st0" d="M85.6,315.6h4.6v-102c0-7.6-6.1-13.7-13.7-13.7h-2.1c-2.5,0-4.6,2-4.6,4.6l0,0h6.6c5,0,9.1,4.1,9.1,9.1
					L85.6,315.6L85.6,315.6z"/>
				<rect x="115.8" y="202.5" class="st0" width="10.2" height="111.1"/>
				<rect x="98" y="202.5" class="st0" width="10.1" height="111.1"/>
				<path class="st0" d="M69.8,204.5L69.8,204.5c0-2.5,2-4.6,4.6-4.6h46.5h46.5c2.5,0,4.6,2,4.6,4.6l0,0h-51.1H69.8z"/>
			</g>
		</g>
	</g>
</g>
<g id="_x33__1_">
	<text id="text_3_" transform="matrix(0.9717 -0.2362 0.2362 0.9717 92.7687 255.9927)" class="st1 st2 st3">#CODE</text>
</g>
<g>
	<path class="st4" d="M159.3,124.5l47.1,63.1c0.1,0.3,0.3,0.4,0.6,0.4h0.1c0.3,0,0.5-0.3,0.5-0.6l-26.9-63H159.3z"/>
	<path class="st4" d="M28.6,91h188.1c2.2,0,3.9,1.8,3.9,3.9v26.5c0,2.2-1.8,3.9-3.9,3.9H28.6c-2.2,0-3.9-1.8-3.9-3.9V94.9
		C24.6,92.7,26.4,91,28.6,91z"/>
	<path class="st0" d="M32.6,96H51c1.6,0,2.9,1.3,2.9,2.9v18.4c0,1.6-1.3,2.9-2.9,2.9H32.6c-1.6,0-2.9-1.3-2.9-2.9V99
		C29.7,97.3,31,96,32.6,96z"/>
	
		<linearGradient id="SVGID_1_" gradientUnits="userSpaceOnUse" x1="189.7724" y1="278.7498" x2="189.7724" y2="274.229" gradientTransform="matrix(1 0 0 -1 -147.92 379.67)">
		<stop  offset="0" style="stop-color:#649EFE"/>
		<stop  offset="1" style="stop-color:#448AFE"/>
	</linearGradient>
	<path class="st5" d="M41.8,100.4c-3.8,0-7,2.7-7.6,6.4c-0.1,0.3-0.1,0.6-0.1,0.9c0,0.1,0,0.3,0,0.4v0c0,2.1,0.9,4.2,2.5,5.7v3.2
		l0.1,0l2.6-1.6c4,1.5,8.5-0.6,10-4.6c1.5-4-0.6-8.5-4.6-10C43.7,100.5,42.8,100.3,41.8,100.4L41.8,100.4z M46.5,106.2l-1.8,2
		l-2.1,2.3c0,0-0.1,0-0.1,0l-1.9-1.9c0,0-0.1,0-0.1,0l-3.5,1.9l-0.1,0l0,0l0.3-0.3l2-2.2l1.7-1.9c0,0,0,0,0.1,0l2,1.9
		c0,0,0.1,0,0.1,0c0,0,0,0,0,0l3.5-1.9l0.1,0l0,0L46.5,106.2z"/>
	<path class="st6" d="M46.6,106.1l-3.5,1.9c0,0-0.1,0-0.1,0l-1.9-2c0,0,0,0-0.1,0l-1.7,1.9l-2,2.2l-0.3,0.3l0,0l0.1,0l3.5-1.9
		c0,0,0.1,0,0.1,0c0,0,0,0,0,0l2,1.9c0,0,0.1,0,0.1,0l2.1-2.3l1.8-2L46.6,106.1L46.6,106.1L46.6,106.1z"/>
	<path class="st0" d="M203.4,96H87.5c-6.7,0-12.1,5.4-12.1,12.1c0,6.7,5.4,12.1,12.1,12.1l0,0h115.9c6.7,0,12.1-5.4,12.1-12.1
		C215.6,101.5,210.1,96,203.4,96z"/>
	<path class="st7" d="M94.3,112.7l-2.8-2.8c-0.1-0.1-0.4-0.1-0.5,0l0,0l-1-1l0.1-0.1c0.7-0.9,1-1.9,0.8-3c-0.2-1.7-1.5-3.1-3.2-3.5
		l-0.5-0.1h-0.7l-0.5,0.1c-1.7,0.4-3,1.8-3.2,3.5v0.2v0.7v0.1c0,0.2,0.1,0.5,0.2,0.7c0.7,2.2,3,3.4,5.1,2.7c0.4-0.1,0.8-0.3,1.1-0.6
		l0.2-0.1l1,1l-0.1,0.1c-0.1,0.1-0.1,0.4,0,0.5l2.8,2.8c0.1,0.1,0.4,0.1,0.5,0c0,0,0,0,0,0l0.8-0.8C94.4,113,94.4,112.8,94.3,112.7
		C94.3,112.7,94.3,112.7,94.3,112.7z M86.8,109.6c-1.8,0-3.2-1.5-3.2-3.2c0-1.8,1.5-3.2,3.2-3.2c1.8,0,3.2,1.4,3.2,3.2
		C90,108.2,88.6,109.6,86.8,109.6C86.8,109.6,86.8,109.6,86.8,109.6z"/>
	<g>
		<rect x="58.9" y="106.8" class="st0" width="9" height="2.6"/>
	</g>
	<polygon class="st0" points="62.7,103.7 67.2,108.2 62.7,112.6 66.5,112.6 70.9,108.2 66.5,103.7 	"/>
	
		<linearGradient id="SVGID_2_" gradientUnits="userSpaceOnUse" x1="189.7806" y1="278.7498" x2="189.7806" y2="274.229" gradientTransform="matrix(1 0 0 -1 -147.92 379.67)">
		<stop  offset="0" style="stop-color:#649EFE"/>
		<stop  offset="1" style="stop-color:#448AFE"/>
	</linearGradient>
	<path class="st8" d="M41.8,100.4c-3.8,0-7,2.7-7.6,6.4c-0.1,0.3-0.1,0.6-0.1,0.9c0,0.1,0,0.3,0,0.4v0c0,2.1,0.9,4.2,2.5,5.7v3.2
		l0.1,0l2.6-1.6c4,1.5,8.5-0.6,10-4.6c1.5-4-0.6-8.5-4.6-10C43.7,100.5,42.8,100.3,41.8,100.4L41.8,100.4z M46.6,106.2l-1.8,2
		l-2.1,2.3c0,0-0.1,0-0.1,0l-1.9-1.9c0,0-0.1,0-0.1,0l-3.5,1.9l-0.1,0l0,0l0.3-0.3l2-2.2l1.7-1.9c0,0,0,0,0.1,0l2,1.9
		c0,0,0.1,0,0.1,0c0,0,0,0,0,0l3.5-1.9l0.1,0l0,0L46.6,106.2z"/>
	<path class="st7" d="M94.3,112.7l-2.8-2.8c-0.1-0.1-0.4-0.1-0.5,0l0,0l-1-1l0.1-0.1c0.7-0.9,1-1.9,0.8-3c-0.2-1.7-1.5-3.1-3.2-3.5
		l-0.5-0.1h-0.7l-0.5,0.1c-1.7,0.4-3,1.8-3.2,3.5v0.2v0.7v0.1c0,0.2,0.1,0.5,0.2,0.7c0.7,2.2,3,3.4,5.1,2.7c0.4-0.1,0.8-0.3,1.1-0.6
		l0.2-0.1l1,1l-0.1,0.1c-0.1,0.1-0.1,0.4,0,0.5l2.8,2.8c0.1,0.1,0.4,0.1,0.5,0c0,0,0,0,0,0l0.8-0.8C94.4,113,94.4,112.8,94.3,112.7
		C94.3,112.7,94.3,112.7,94.3,112.7z M86.8,109.6c-1.8,0-3.2-1.5-3.2-3.2c0-1.8,1.5-3.2,3.2-3.2c1.8,0,3.2,1.4,3.2,3.2
		C90.1,108.2,88.6,109.6,86.8,109.6C86.8,109.6,86.8,109.6,86.8,109.6z"/>
	<line class="st9" x1="203" y1="101" x2="203" y2="115.3"/>
	<g>
		<path class="st7" d="M102.1,109.5v4.1h-1.7V104h1.7v4h4.6v-4h1.7v9.6h-1.7v-4.1H102.1z"/>
		<path class="st7" d="M114.1,112.4c0.8,0,1.4-0.3,2-0.9l1,0.9c-0.7,0.8-1.6,1.4-3,1.4c-2.1,0-3.7-1.5-3.7-3.8
			c0-2.1,1.5-3.8,3.5-3.8c2.3,0,3.5,1.8,3.5,3.9c0,0.2,0,0.3,0,0.5H112C112.2,111.7,113,112.4,114.1,112.4z M115.7,109.4
			c-0.1-1.1-0.7-1.9-1.8-1.9c-1,0-1.7,0.8-1.9,1.9H115.7z"/>
		<path class="st7" d="M119.1,113.6v-10h1.7v10H119.1z"/>
		<path class="st7" d="M123,113.6v-10h1.7v10H123z"/>
		<path class="st7" d="M130.3,113.7c-2.2,0-3.8-1.7-3.8-3.8c0-2.1,1.6-3.8,3.9-3.8c2.2,0,3.9,1.7,3.9,3.8
			C134.2,112,132.6,113.7,130.3,113.7z M130.3,107.6c-1.3,0-2.2,1-2.2,2.3c0,1.3,0.9,2.4,2.2,2.4c1.3,0,2.2-1,2.2-2.3
			C132.6,108.7,131.6,107.6,130.3,107.6z"/>
		<path class="st7" d="M137.9,104v9.6h-1.7V104H137.9z"/>
		<path class="st7" d="M141.9,113.6h-1.7v-7.3h1.7v1.1c0.5-0.7,1.1-1.3,2.3-1.3c1.6,0,2.6,1.1,2.6,2.8v4.6h-1.7v-4.1
			c0-1.1-0.6-1.8-1.6-1.8c-1,0-1.6,0.7-1.6,1.8V113.6z"/>
		<path class="st7" d="M154.3,113.6v-1.2c-0.5,0.8-1.3,1.4-2.5,1.4c-1.7,0-3.4-1.4-3.4-3.8c0-2.4,1.6-3.8,3.4-3.8
			c1.2,0,2,0.6,2.5,1.3v-3.9h1.7v10H154.3z M152.2,107.6c-1.1,0-2.1,0.9-2.1,2.3c0,1.4,1,2.3,2.1,2.3c1.1,0,2.1-0.9,2.1-2.3
			S153.3,107.6,152.2,107.6z"/>
		<path class="st7" d="M158,105.2v-1.6h1.8v1.6H158z M158.1,113.6v-7.3h1.7v7.3H158.1z"/>
		<path class="st7" d="M166.4,113.6v-0.9c-0.5,0.6-1.3,1-2.4,1c-1.4,0-2.6-0.8-2.6-2.2v0c0-1.6,1.3-2.3,2.9-2.3c0.9,0,1.4,0.1,2,0.3
			v-0.2c0-1-0.6-1.6-1.8-1.6c-0.8,0-1.4,0.2-2.1,0.5l-0.5-1.3c0.8-0.4,1.6-0.6,2.8-0.6c2.1,0,3.2,1.1,3.2,3.1v4.3H166.4z
			 M166.4,110.5c-0.4-0.2-1-0.3-1.7-0.3c-1,0-1.7,0.4-1.7,1.2v0c0,0.7,0.6,1.1,1.4,1.1c1.1,0,1.9-0.6,1.9-1.5V110.5z"/>
		<path class="st7" d="M171,106.8l-1.2-0.9c0.9-1.3,1.8-2,3.5-2c1.9,0,3.2,1.2,3.2,2.9c0,1.5-0.8,2.4-2.5,3.7l-2,1.6h4.6v1.5h-7
			v-1.3l3.3-2.8c1.3-1.1,1.8-1.7,1.8-2.6c0-0.9-0.7-1.5-1.6-1.5S171.7,105.8,171,106.8z"/>
		<path class="st7" d="M182.3,113.7c-2.5,0-4.2-2.2-4.2-5c0-2.8,1.7-5,4.2-5c2.5,0,4.2,2.2,4.2,5
			C186.6,111.5,184.9,113.7,182.3,113.7z M182.3,105.3c-1.5,0-2.4,1.5-2.4,3.4s1,3.5,2.5,3.5s2.4-1.5,2.4-3.4
			C184.8,106.9,183.8,105.3,182.3,105.3z"/>
		<path class="st7" d="M190.2,103.9h1.2v9.7h-1.7v-8l-1.7,0.5l-0.4-1.4L190.2,103.9z"/>
		<path class="st7" d="M197,113.7c-2.1,0-3.7-1.1-3.7-2.8c0-1.2,0.6-1.9,1.7-2.4c-0.8-0.4-1.4-1.1-1.4-2.2c0-1.5,1.4-2.6,3.3-2.6
			s3.3,1.1,3.3,2.6c0,1.1-0.6,1.7-1.4,2.2c1,0.5,1.7,1.2,1.7,2.3C200.7,112.6,199.2,113.7,197,113.7z M197,109.4c-1.1,0-2,0.6-2,1.5
			c0,0.8,0.8,1.5,2,1.5s2-0.6,2-1.5C199.1,109.9,198.2,109.4,197,109.4z M197,105.2c-1,0-1.7,0.6-1.7,1.3c0,0.9,0.7,1.4,1.7,1.4
			c1,0,1.7-0.6,1.7-1.4C198.8,105.8,198.1,105.2,197,105.2z"/>
	</g>
	<text transform="matrix(1 0 0 1 99.214 113.5777)" class="st10 st11 st12">HelloIndia2018</text>
</g>
</svg>
